<?xml version="1.0" encoding="utf-8"?>
<!-- Generator: Adobe Illustrator 28.0.0, SVG Export Plug-In . SVG Version: 6.00 Build 0)  -->
<svg version="1.1" id="Шар_1" xmlns="http://www.w3.org/2000/svg" xmlns:xlink="http://www.w3.org/1999/xlink" x="0px" y="0px"
	 viewBox="0 0 521.7 100" style="enable-background:new 0 0 521.7 100;" xml:space="preserve">
<style type="text/css">
	.st0{fill:#FFFFFF;}
	.st1{fill:#7381FF;}
	.st2{fill:#FF65D4;}
</style>
<g>
	<g>
		<g>
			<path class="st0" d="M137,71.6c-3.6,0-6.7-0.7-9.5-2c-2.7-1.4-4.9-3.5-6.4-6.3c-1.5-2.8-2.3-6.4-2.3-10.7V28.6h12.3v22.1
				c0,3.6,0.8,6.2,2.2,7.8c1.5,1.7,3.6,2.5,6.3,2.5c1.9,0,3.6-0.4,5-1.3c1.5-0.8,2.6-2.1,3.5-3.8c0.9-1.7,1.3-3.8,1.3-6.3v-21h12.2
				V71h-11.7V59.2l2.1,3.5c-1.5,2.9-3.6,5.2-6.3,6.7C143.2,70.8,140.2,71.6,137,71.6z"/>
			<path class="st0" d="M186.3,71.6c-3.3,0-6.1-0.6-8.4-1.7c-2.4-1.1-4.2-2.7-5.5-4.6c-1.3-1.9-1.9-4.1-1.9-6.5
				c0-2.5,0.6-4.7,1.9-6.6c1.2-1.9,3.2-3.4,5.9-4.5c2.7-1,6.2-1.6,10.6-1.6h11.2v7.1H190c-2.9,0-4.9,0.5-5.9,1.4
				c-1.1,0.9-1.6,2.1-1.6,3.5c0,1.6,0.6,2.8,1.9,3.7c1.2,0.9,2.9,1.4,5,1.4c2.1,0,4-0.5,5.6-1.4c1.7-0.9,2.8-2.4,3.5-4.3l1.9,5.8
				c-0.9,2.6-2.5,4.7-4.9,6.1C193,70.9,190,71.6,186.3,71.6z M199.2,71v-8.3l-0.8-1.8V46.1c0-2.6-0.8-4.7-2.4-6.1
				c-1.6-1.5-4.1-2.2-7.4-2.2c-2.3,0-4.5,0.4-6.7,1.1c-2.2,0.7-4.1,1.7-5.6,2.9l-4.3-8.6c2.3-1.7,5.1-3,8.3-3.8
				c3.3-0.9,6.6-1.3,9.9-1.3c6.5,0,11.5,1.5,15,4.6c3.6,3,5.4,7.8,5.4,14.3V71H199.2z"/>
			<path class="st0" d="M216.7,39v-9.5h29.4V39H216.7z M239.1,71.6c-5,0-8.9-1.3-11.7-3.8c-2.8-2.5-4.2-6.3-4.2-11.4V19.2h12.4v36.9
				c0,1.8,0.5,3.2,1.4,4.2c0.9,1,2.2,1.5,3.7,1.5c2,0,3.7-0.5,5-1.6l3.2,8.7c-1.2,0.9-2.7,1.6-4.5,2C242.8,71.4,241,71.6,239.1,71.6
				z"/>
			<path class="st0" d="M256.1,71V28.6h11.7v12.1l-1.7-3.5c1.3-3,3.3-5.3,6.1-6.8s6.2-2.3,10.2-2.3v11.4c-0.5-0.1-0.9-0.2-1.4-0.2
				c-0.4-0.1-0.9-0.1-1.3-0.1c-3.5,0-6.2,1-8.3,2.9c-2,1.9-3.1,4.9-3.1,9v20H256.1z"/>
			<path class="st0" d="M300,71.6c-3.3,0-6.1-0.6-8.4-1.7c-2.4-1.1-4.2-2.7-5.5-4.6c-1.3-1.9-1.9-4.1-1.9-6.5c0-2.5,0.6-4.7,1.9-6.6
				c1.2-1.9,3.2-3.4,5.9-4.5c2.7-1,6.2-1.6,10.6-1.6h11.2v7.1h-9.9c-2.9,0-4.9,0.5-5.9,1.4c-1.1,0.9-1.6,2.1-1.6,3.5
				c0,1.6,0.6,2.8,1.9,3.7c1.2,0.9,2.9,1.4,5,1.4c2.1,0,4-0.5,5.6-1.4c1.7-0.9,2.8-2.4,3.5-4.3l1.9,5.8c-0.9,2.6-2.5,4.7-4.9,6.1
				C306.8,70.9,303.7,71.6,300,71.6z M312.9,71v-8.3l-0.8-1.8V46.1c0-2.6-0.8-4.7-2.4-6.1c-1.6-1.5-4.1-2.2-7.4-2.2
				c-2.3,0-4.5,0.4-6.7,1.1c-2.2,0.7-4.1,1.7-5.6,2.9l-4.3-8.6c2.3-1.7,5.1-3,8.3-3.8c3.3-0.9,6.6-1.3,9.9-1.3
				c6.5,0,11.5,1.5,15,4.6s5.4,7.8,5.4,14.3V71H312.9z"/>
			<path class="st0" d="M356.3,71.6c-4.6,0-8.6-0.9-12.2-2.8c-3.5-1.9-6.3-4.5-8.3-7.8c-2-3.3-3-7.1-3-11.3c0-4.3,1-8,3-11.3
				c2-3.3,4.8-5.8,8.3-7.7c3.5-1.9,7.6-2.8,12.2-2.8c4.5,0,8.4,0.9,11.7,2.8c3.3,1.9,5.7,4.5,7.2,7.9l-9.5,5.2
				c-1.2-2-2.5-3.5-4.2-4.4c-1.6-0.9-3.4-1.4-5.4-1.4c-2,0-3.9,0.5-5.6,1.4s-3,2.2-4,4s-1.5,3.8-1.5,6.3c0,2.5,0.5,4.6,1.5,6.3
				s2.3,3.1,4,4c1.7,0.9,3.5,1.4,5.6,1.4c1.9,0,3.7-0.5,5.4-1.4c1.6-0.9,3-2.4,4.2-4.5l9.5,5.2c-1.5,3.4-3.9,6-7.2,7.9
				C364.7,70.6,360.8,71.6,356.3,71.6z"/>
			<path class="st0" d="M382.1,71V12.5h12.3V71H382.1z M392.3,62.3l0.3-15l19.8-18.7H427l-19,19.3l-6.4,5.3L392.3,62.3z M413.7,71
				l-14.3-17.8l7.7-9.5L428.6,71H413.7z"/>
			<path class="st0" d="M453.3,71.6c-4.8,0-9.1-0.9-12.7-2.8c-3.6-1.9-6.4-4.5-8.4-7.8s-3-7-3-11.2s1-8,2.9-11.3
				c1.9-3.3,4.6-5.9,8-7.8c3.4-1.9,7.3-2.8,11.6-2.8c4.1,0,7.9,0.9,11.2,2.7c3.3,1.8,6,4.3,7.9,7.6c1.9,3.3,2.9,7.2,2.9,11.7
				c0,0.5,0,1-0.1,1.6c-0.1,0.6-0.1,1.2-0.2,1.7h-34.4v-7.2h28l-4.8,2.1c0-2.2-0.4-4.1-1.3-5.8c-0.9-1.6-2.1-2.9-3.7-3.8
				c-1.6-0.9-3.4-1.4-5.5-1.4c-2.1,0-4,0.5-5.6,1.4c-1.6,0.9-2.8,2.2-3.7,3.9c-0.9,1.7-1.3,3.6-1.3,5.9v1.9c0,2.4,0.5,4.4,1.6,6.1
				c1,1.7,2.5,3.1,4.3,4s4,1.4,6.6,1.4c2.2,0,4.2-0.3,5.9-1c1.7-0.7,3.3-1.7,4.7-3.1l6.5,7.1c-1.9,2.2-4.4,3.9-7.3,5.1
				C460.5,71,457.1,71.6,453.3,71.6z"/>
			<path class="st0" d="M482,71V28.6h11.7v12.1l-1.7-3.5c1.3-3,3.3-5.3,6.1-6.8s6.2-2.3,10.2-2.3v11.4c-0.5-0.1-0.9-0.2-1.4-0.2
				c-0.4-0.1-0.9-0.1-1.3-0.1c-3.5,0-6.2,1-8.3,2.9c-2,1.9-3.1,4.9-3.1,9v20H482z"/>
		</g>
	</g>
	<g>
		<g>
			<path class="st1" d="M35.1,45.4c0,2.5,0.4,4.9,1.2,7.1H11.5c-0.5-2.6-0.7-5.2-0.7-7.9c0-2.1,0.2-4.2,0.5-6.2h25.1
				C35.5,40.6,35.1,43,35.1,45.4z"/>
			<path class="st1" d="M55.4,24.4h0.7C55.9,24.4,55.7,24.4,55.4,24.4C55.5,24.4,55.5,24.4,55.4,24.4l-39.7,0
				C18.5,19,22.4,14.2,27,10.3h28.5v-10c10.5,0.1,20.1,3.8,27.6,10H55.4V24.4z"/>
			<path class="st1" d="M76,52.5h22.6c-0.9,4.9-2.6,9.5-4.9,13.7H59.1C66.9,65.2,73.4,59.8,76,52.5z"/>
			<path class="st1" d="M56.2,24.4h38.2c2.2,4.3,3.8,9.1,4.5,14.1H76.1C73.2,30.3,65.4,24.4,56.2,24.4z"/>
			<path class="st1" d="M28.7,80.1h26.2V66.5H16.6C19.6,71.9,23.8,76.5,28.7,80.1z"/>
			<path class="st1" d="M55.2,80.3v8.7c9.8,0,18.8-3.3,26.1-8.7H55.2z"/>
		</g>
		<rect x="92.4" y="81.3" class="st2" width="18.2" height="18.2"/>
	</g>
</g>
</svg>
