<?xml version="1.0" encoding="utf-8"?>
<!-- Generator: Adobe Illustrator 28.0.0, SVG Export Plug-In . SVG Version: 6.00 Build 0)  -->
<svg version="1.1" id="Шар_1" xmlns="http://www.w3.org/2000/svg" xmlns:xlink="http://www.w3.org/1999/xlink" x="0px" y="0px"
	 viewBox="0 0 471.8 100" style="enable-background:new 0 0 471.8 100;" xml:space="preserve">
<style type="text/css">
	.st0{fill:#FFFFFF;}
	.st1{fill:#7381FF;}
	.st2{fill:#FF65D4;}
</style>
<g>
	<g>
		<g>
			<path class="st0" d="M128.2,66.5c-3.2,0-6-0.6-8.4-1.8c-2.4-1.2-4.3-3.1-5.7-5.6c-1.4-2.5-2-5.7-2-9.5V28.2H123v19.6
				c0,3.2,0.7,5.5,2,7c1.3,1.5,3.2,2.2,5.6,2.2c1.7,0,3.2-0.4,4.5-1.1c1.3-0.7,2.3-1.9,3.1-3.4c0.8-1.5,1.2-3.4,1.2-5.6V28.2h10.9
				v37.7h-10.4V55.5l1.9,3.1c-1.3,2.6-3.2,4.6-5.6,5.9C133.8,65.8,131.1,66.5,128.2,66.5z"/>
			<path class="st0" d="M172.1,66.5c-2.9,0-5.4-0.5-7.5-1.5c-2.1-1-3.7-2.4-4.9-4.1c-1.1-1.7-1.7-3.7-1.7-5.8c0-2.2,0.5-4.1,1.6-5.9
				c1.1-1.7,2.8-3,5.2-4c2.4-0.9,5.5-1.4,9.4-1.4h10v6.3h-8.8c-2.6,0-4.3,0.4-5.3,1.3c-1,0.8-1.4,1.9-1.4,3.2c0,1.4,0.6,2.5,1.6,3.3
				c1.1,0.8,2.6,1.2,4.5,1.2c1.9,0,3.5-0.4,5-1.3c1.5-0.8,2.5-2.1,3.1-3.9l1.7,5.1c-0.8,2.3-2.2,4.1-4.3,5.4
				C178.1,65.9,175.4,66.5,172.1,66.5z M183.6,65.9v-7.4l-0.7-1.6V43.8c0-2.3-0.7-4.2-2.1-5.5c-1.4-1.3-3.6-2-6.6-2
				c-2,0-4,0.3-5.9,0.9c-1.9,0.6-3.6,1.5-5,2.6l-3.9-7.6c2.1-1.5,4.5-2.6,7.4-3.4c2.9-0.8,5.8-1.2,8.8-1.2c5.7,0,10.2,1.4,13.4,4.1
				s4.8,6.9,4.8,12.7v21.5H183.6z"/>
			<path class="st0" d="M199.2,37.5v-8.4h26.1v8.4H199.2z M219.2,66.5c-4.4,0-7.9-1.1-10.4-3.4s-3.7-5.6-3.7-10.1V19.9h11v32.9
				c0,1.6,0.4,2.8,1.2,3.7c0.8,0.9,1.9,1.3,3.3,1.3c1.8,0,3.3-0.5,4.5-1.4l2.9,7.7c-1.1,0.8-2.4,1.4-4,1.8
				C222.5,66.3,220.8,66.5,219.2,66.5z"/>
			<path class="st0" d="M234.2,65.9V28.2h10.4v10.7l-1.5-3.2c1.1-2.7,2.9-4.7,5.4-6.1c2.5-1.4,5.5-2.1,9-2.1v10.2
				c-0.4-0.1-0.8-0.2-1.2-0.2c-0.4,0-0.8-0.1-1.2-0.1c-3.1,0-5.5,0.9-7.4,2.6c-1.8,1.7-2.7,4.4-2.7,8v17.8H234.2z"/>
			<path class="st0" d="M273.3,66.5c-2.9,0-5.4-0.5-7.5-1.5c-2.1-1-3.7-2.4-4.9-4.1c-1.1-1.7-1.7-3.7-1.7-5.8c0-2.2,0.5-4.1,1.6-5.9
				c1.1-1.7,2.8-3,5.2-4c2.4-0.9,5.5-1.4,9.4-1.4h10v6.3h-8.8c-2.6,0-4.3,0.4-5.3,1.3c-1,0.8-1.4,1.9-1.4,3.2c0,1.4,0.6,2.5,1.6,3.3
				c1.1,0.8,2.6,1.2,4.5,1.2c1.9,0,3.5-0.4,5-1.3c1.5-0.8,2.5-2.1,3.1-3.9l1.7,5.1c-0.8,2.3-2.2,4.1-4.3,5.4
				C279.4,65.9,276.7,66.5,273.3,66.5z M284.8,65.9v-7.4l-0.7-1.6V43.8c0-2.3-0.7-4.2-2.1-5.5c-1.4-1.3-3.6-2-6.6-2
				c-2,0-4,0.3-5.9,0.9c-1.9,0.6-3.6,1.5-5,2.6l-3.9-7.6c2.1-1.5,4.5-2.6,7.4-3.4c2.9-0.8,5.8-1.2,8.8-1.2c5.7,0,10.2,1.4,13.4,4.1
				c3.2,2.7,4.8,6.9,4.8,12.7v21.5H284.8z"/>
			<path class="st0" d="M323.5,66.5c-4.1,0-7.7-0.8-10.8-2.5c-3.2-1.7-5.6-4-7.4-6.9c-1.8-2.9-2.7-6.3-2.7-10c0-3.8,0.9-7.1,2.7-10
				c1.8-2.9,4.3-5.2,7.4-6.9s6.8-2.5,10.8-2.5c4,0,7.4,0.8,10.4,2.5c3,1.7,5.1,4,6.4,7l-8.4,4.6c-1-1.8-2.3-3.1-3.7-3.9
				s-3-1.2-4.8-1.2c-1.8,0-3.5,0.4-5,1.2c-1.5,0.8-2.7,2-3.6,3.5s-1.3,3.4-1.3,5.6c0,2.2,0.4,4.1,1.3,5.6s2.1,2.8,3.6,3.6
				c1.5,0.8,3.2,1.2,5,1.2c1.7,0,3.3-0.4,4.8-1.2s2.7-2.1,3.7-4l8.4,4.6c-1.3,3-3.4,5.3-6.4,7C330.9,65.7,327.4,66.5,323.5,66.5z"/>
			<path class="st0" d="M346.4,65.9v-52h10.9v52H346.4z M355.4,58.2l0.3-13.4l17.6-16.6h13l-16.9,17.2l-5.7,4.7L355.4,58.2z
				 M374.5,65.9l-12.8-15.8l6.9-8.5l19.1,24.3H374.5z"/>
			<path class="st0" d="M409.8,66.5c-4.3,0-8.1-0.8-11.3-2.5c-3.2-1.7-5.7-4-7.5-6.9c-1.8-2.9-2.7-6.3-2.7-10c0-3.7,0.9-7.1,2.6-10
				c1.7-2.9,4.1-5.2,7.2-6.9c3.1-1.7,6.5-2.5,10.3-2.5c3.7,0,7,0.8,10,2.4s5.3,3.8,7,6.7c1.7,2.9,2.6,6.4,2.6,10.4
				c0,0.4,0,0.9-0.1,1.4c0,0.5-0.1,1-0.1,1.5h-30.6v-6.4H422l-4.3,1.9c0-2-0.3-3.7-1.1-5.1c-0.8-1.4-1.9-2.6-3.3-3.4
				c-1.4-0.8-3-1.2-4.9-1.2c-1.9,0-3.5,0.4-4.9,1.2c-1.4,0.8-2.5,2-3.3,3.4c-0.8,1.5-1.2,3.2-1.2,5.2v1.7c0,2.1,0.5,3.9,1.4,5.5
				c0.9,1.5,2.2,2.7,3.9,3.5c1.6,0.8,3.6,1.2,5.9,1.2c2,0,3.7-0.3,5.2-0.9c1.5-0.6,2.9-1.5,4.2-2.7l5.8,6.3c-1.7,2-3.9,3.5-6.5,4.5
				C416.2,66,413.2,66.5,409.8,66.5z"/>
			<path class="st0" d="M435.3,65.9V28.2h10.4v10.7l-1.5-3.2c1.1-2.7,2.9-4.7,5.4-6.1c2.5-1.4,5.5-2.1,9-2.1v10.2
				c-0.4-0.1-0.8-0.2-1.2-0.2c-0.4,0-0.8-0.1-1.2-0.1c-3.1,0-5.5,0.9-7.4,2.6c-1.8,1.7-2.7,4.4-2.7,8v17.8H435.3z"/>
		</g>
	</g>
	<g>
		<path class="st1" d="M57.2,87.8c-0.3,0-0.5,0-0.8,0c-24,0.3-43.7-19-43.9-43c0-0.9,0-1.7,0.1-2.5h13.1c-0.1,0.8-0.1,1.6-0.1,2.4
			C25.7,61.5,39.5,75,56.2,74.8c0.3,0,0.5,0,0.8,0L57.2,87.8z"/>
		<path class="st1" d="M111.8,86.2l-0.3,13.1c-4.2-0.1-10.2-1.2-16.2-4.2c-6.1-2.9-12.1-7.7-16.4-15c0,0,0,0-0.1,0
			c-2.2-3.5-4-7.6-5.1-12.5c6.7-5.6,11-14,11-23.3c0-15.8-12.1-28.8-27.5-30.2L57,1c22.6,1.5,40.6,20.3,40.6,43.4
			c0,9.9-3.3,19.1-9,26.4C95.2,85.6,111,86.2,111.8,86.2z"/>
		<g>
			<path class="st2" d="M37.4,27.5c-2.6,2.7-4.6,5.9-5.7,9.5h24.2v-9.5H37.4z M51.3,34.7L51.3,34.7l-0.1-5.1h0.1
				c1.4,0,2.5,1.1,2.5,2.6C53.8,33.5,52.7,34.7,51.3,34.7z"/>
			<path class="st2" d="M30.7,46.5c0.3,3.4,1.3,6.6,2.8,9.5h22.4v-9.5H30.7z M51.6,53.9L51.6,53.9l-0.1-5.1h0.1
				c1.4,0,2.5,1.1,2.5,2.6S53,53.9,51.6,53.9z"/>
			<path class="st2" d="M55.8,56v9.5h11.6c3.8-2.3,7-5.6,9.1-9.5H55.8z M59.9,63.4L59.9,63.4c-1.5,0-2.6-1.1-2.6-2.6
				s1.1-2.6,2.5-2.6h0.1V63.4z"/>
			<path class="st2" d="M78.2,37H55.9v9.5h23.4c0.1-0.7,0.1-1.4,0.1-2C79.4,41.9,78.9,39.3,78.2,37z M60.1,44.3L60.1,44.3
				c-1.5,0-2.6-1.1-2.6-2.6s1.1-2.6,2.5-2.6h0.1V44.3z"/>
		</g>
	</g>
</g>
</svg>
