<?xml version="1.0" encoding="utf-8"?>
<svg version="1.1" id="Шар_1" xmlns="http://www.w3.org/2000/svg" xmlns:xlink="http://www.w3.org/1999/xlink" x="0px" y="0px"
	 viewBox="0 0 564.3 100" style="enable-background:new 0 0 564.3 100;" xml:space="preserve">
<style type="text/css">
	.st0{ fill: #7381FF; }
	.st1{ fill: #FF65D4; }
	.st2{ fill: #FFFFFF; }

	@media (prefers-color-scheme: dark) {
		.st2 { fill: #1d232a; }
	}
</style>
<g>
	<g>
		<path class="st0" d="M102.2,44c-0.2,23.8-19.4,43-43.1,43.2l0.2-20.1l22.8-11.8l-0.1-21.4L59.5,45.8l-0.1,0l0-3.2l0.1,0l22.4-11.9
			v0l-22.3-10l0.2-20.5C83.4,0.7,102.3,20.2,102.2,44z"/>
		<rect x="84.8" y="77.9" class="st1" width="21.6" height="21.6"/>
		<path class="st0" d="M26.3,41c-0.1,0.8-0.1,1.6-0.1,2.5c0,0.5,0,0.9,0,1.4c0,0.8,0.1,1.5,0.2,2.3c0.5,3.9,1.7,7.5,3.6,10.7
			c0.5,0.8,1,1.6,1.5,2.3c4.9,6.8,12.9,11.4,21.9,11.7l-0.1,15.5c-23.7-0.6-42.6-20.1-42.4-43.9C11,19.9,30.3,0.7,54,0.5l-0.1,15
			c-9.4,0.2-17.6,4.9-22.7,12.1c-0.1,0.2-0.2,0.3-0.3,0.5c-2.4,3.7-4,7.9-4.5,12.5C26.3,40.7,26.3,40.9,26.3,41z"/>
		<polygon class="st1" points="36.9,48.1 59.3,59.7 59.2,67.1 36.9,55.4 		"/>
		<polygon class="st1" points="59.4,45.8 59.3,53.1 36.9,41.4 36.9,34 		"/>
		<polygon class="st1" points="48.1,30.9 48.1,30.9 59.4,36.9 59.4,42.6 36.9,30.8 36.9,30.8 59.5,20.6 59.6,20.6 59.5,25.7 		"/>
	</g>
	<g>
		<g>
			<path class="st2" d="M141.7,74.2c-4,0-7.5-0.8-10.5-2.3c-3-1.5-5.4-3.8-7.1-7c-1.7-3.1-2.5-7.1-2.5-11.9V26.5h13.6V51
				c0,4,0.8,6.9,2.5,8.7c1.7,1.8,4,2.8,7,2.8c2.1,0,4-0.5,5.6-1.4c1.6-0.9,2.9-2.3,3.9-4.2c1-1.9,1.4-4.2,1.4-7V26.5h13.5v47h-12.9
				v-13l2.4,3.8c-1.6,3.3-4,5.7-7,7.4C148.6,73.4,145.3,74.2,141.7,74.2z"/>
			<path class="st2" d="M196.3,74.2c-3.6,0-6.7-0.6-9.3-1.9c-2.6-1.3-4.6-3-6.1-5.1c-1.4-2.2-2.1-4.6-2.1-7.2c0-2.7,0.7-5.2,2.1-7.3
				c1.4-2.1,3.5-3.8,6.5-4.9c3-1.2,6.9-1.7,11.7-1.7h12.4v7.9h-11c-3.2,0-5.4,0.5-6.6,1.6c-1.2,1-1.8,2.4-1.8,3.9
				c0,1.7,0.7,3.1,2.1,4.1c1.4,1,3.2,1.5,5.5,1.5c2.3,0,4.4-0.5,6.2-1.6c1.8-1,3.1-2.6,3.9-4.8l2.1,6.4c-1,2.9-2.8,5.2-5.4,6.8
				C203.8,73.4,200.5,74.2,196.3,74.2z M210.6,73.5v-9.2l-0.9-2V45.9c0-2.9-0.9-5.2-2.7-6.8c-1.8-1.6-4.5-2.4-8.2-2.4
				c-2.5,0-5,0.4-7.4,1.2c-2.4,0.8-4.5,1.8-6.2,3.2l-4.8-9.5c2.6-1.9,5.6-3.3,9.3-4.2c3.6-1,7.3-1.4,11-1.4c7.2,0,12.7,1.7,16.7,5.1
				c4,3.4,5.9,8.6,5.9,15.8v26.8H210.6z"/>
			<path class="st2" d="M230.1,38V27.6h32.6V38H230.1z M254.9,74.2c-5.5,0-9.8-1.4-12.9-4.2c-3.1-2.8-4.6-7-4.6-12.6V16.1h13.7v41
				c0,2,0.5,3.5,1.5,4.6c1,1.1,2.4,1.7,4.1,1.7c2.2,0,4.1-0.6,5.6-1.7l3.6,9.6c-1.3,1-3,1.7-4.9,2.2C259,73.9,257,74.2,254.9,74.2z"
				/>
			<path class="st2" d="M273.7,73.5v-47h13v13.4l-1.8-3.9c1.4-3.3,3.6-5.8,6.7-7.6c3.1-1.7,6.8-2.6,11.3-2.6v12.7
				c-0.5-0.1-1-0.2-1.5-0.3c-0.5-0.1-1-0.1-1.4-0.1c-3.8,0-6.9,1.1-9.2,3.2c-2.3,2.2-3.4,5.5-3.4,10v22.2H273.7z"/>
			<path class="st2" d="M325.8,74.2c-3.6,0-6.7-0.6-9.3-1.9c-2.6-1.3-4.6-3-6.1-5.1c-1.4-2.2-2.1-4.6-2.1-7.2c0-2.7,0.7-5.2,2.1-7.3
				c1.4-2.1,3.5-3.8,6.5-4.9c3-1.2,6.9-1.7,11.7-1.7h12.4v7.9h-11c-3.2,0-5.4,0.5-6.6,1.6c-1.2,1-1.8,2.4-1.8,3.9
				c0,1.7,0.7,3.1,2.1,4.1c1.4,1,3.2,1.5,5.5,1.5c2.3,0,4.4-0.5,6.2-1.6c1.8-1,3.1-2.6,3.9-4.8l2.1,6.4c-1,2.9-2.8,5.2-5.4,6.8
				C333.3,73.4,330,74.2,325.8,74.2z M340.2,73.5v-9.2l-0.9-2V45.9c0-2.9-0.9-5.2-2.7-6.8c-1.8-1.6-4.5-2.4-8.2-2.4
				c-2.5,0-5,0.4-7.4,1.2c-2.4,0.8-4.5,1.8-6.2,3.2l-4.8-9.5c2.6-1.9,5.6-3.3,9.3-4.2c3.6-1,7.3-1.4,11-1.4c7.2,0,12.7,1.7,16.7,5.1
				c4,3.4,5.9,8.6,5.9,15.8v26.8H340.2z"/>
			<path class="st2" d="M387.9,74.2c-5.1,0-9.6-1-13.5-3.1c-3.9-2.1-7-4.9-9.3-8.6c-2.2-3.7-3.4-7.8-3.4-12.5
				c0-4.7,1.1-8.9,3.4-12.5c2.2-3.6,5.3-6.5,9.3-8.6c3.9-2.1,8.4-3.1,13.5-3.1c4.9,0,9.3,1,13,3.1c3.7,2.1,6.4,5,8,8.8l-10.5,5.8
				c-1.3-2.2-2.8-3.8-4.6-4.8c-1.8-1-3.8-1.5-5.9-1.5c-2.3,0-4.3,0.5-6.2,1.5c-1.9,1-3.3,2.5-4.5,4.4c-1.1,1.9-1.7,4.3-1.7,7
				c0,2.7,0.6,5.1,1.7,7c1.1,2,2.6,3.4,4.5,4.5c1.9,1,3.9,1.5,6.2,1.5c2.2,0,4.1-0.5,5.9-1.5c1.8-1,3.3-2.7,4.6-4.9l10.5,5.8
				c-1.6,3.7-4.3,6.6-8,8.7C397.2,73.1,392.9,74.2,387.9,74.2z"/>
			<path class="st2" d="M416.8,73.5V8.7h13.6v64.8H416.8z M428.1,63.9l0.3-16.7l21.9-20.7h16.2l-21,21.4l-7.1,5.9L428.1,63.9z
				 M451.8,73.5l-15.9-19.7l8.6-10.6l23.8,30.3H451.8z"/>
			<path class="st2" d="M497.8,74.2c-5.4,0-10-1-14.1-3.1c-4-2.1-7.1-5-9.3-8.6c-2.2-3.6-3.3-7.8-3.3-12.4c0-4.7,1.1-8.8,3.2-12.5
				c2.1-3.7,5.1-6.5,8.9-8.6c3.8-2.1,8.1-3.1,12.9-3.1c4.6,0,8.7,1,12.4,3c3.7,2,6.6,4.8,8.8,8.4c2.2,3.6,3.2,7.9,3.2,13
				c0,0.5,0,1.1-0.1,1.8c-0.1,0.7-0.1,1.3-0.2,1.9h-38.2v-7.9h31l-5.3,2.4c0.1-2.4-0.4-4.6-1.4-6.4c-1-1.8-2.4-3.2-4.1-4.2
				c-1.7-1-3.8-1.5-6.1-1.5c-2.3,0-4.4,0.5-6.2,1.5c-1.8,1-3.2,2.4-4.1,4.3c-1,1.8-1.5,4-1.5,6.5v2.1c0,2.6,0.6,4.9,1.7,6.8
				c1.2,1.9,2.8,3.4,4.8,4.4c2,1,4.5,1.5,7.3,1.5c2.4,0,4.6-0.4,6.5-1.1c1.9-0.8,3.6-1.9,5.2-3.4l7.2,7.9c-2.2,2.4-4.9,4.3-8.1,5.6
				C505.8,73.5,502,74.2,497.8,74.2z"/>
			<path class="st2" d="M529.6,73.5v-47h13v13.4l-1.8-3.9c1.4-3.3,3.6-5.8,6.7-7.6c3.1-1.7,6.8-2.6,11.3-2.6v12.7
				c-0.5-0.1-1-0.2-1.5-0.3c-0.5-0.1-1-0.1-1.4-0.1c-3.8,0-6.9,1.1-9.2,3.2c-2.3,2.2-3.4,5.5-3.4,10v22.2H529.6z"/>
		</g>
	</g>
</g>
</svg>
