<?xml version="1.0" encoding="utf-8"?>
<!-- This logo is not permanent -->
<svg width="396" viewBox="0 0 370 100" xmlns="http://www.w3.org/2000/svg">
    <g fill="#7216f4">
        <path
            xmlns="http://www.w3.org/2000/svg"
            d="M89.487,76.263C78.789,81.79,64.766,84.833,50,84.833s-28.789-3.044-39.487-8.571c-3.774-1.95-7.028-4.158-9.751-6.57  C0.271,71.147,0,72.64,0,74.167C0,88.434,22.386,100,50,100s50-11.566,50-25.833c0-1.527-0.271-3.02-0.763-4.474  C96.515,72.104,93.261,74.313,89.487,76.263z"
        ></path>
        <ellipse
            xmlns="http://www.w3.org/2000/svg"
            cx="50"
            cy="25.833"
            rx="50"
            ry="25.833"
        ></ellipse>
        <path
            xmlns="http://www.w3.org/2000/svg"
            d="M89.487,52.096C78.789,57.623,64.766,60.667,50,60.667s-28.789-3.044-39.487-8.571c-3.774-1.95-7.028-4.158-9.751-6.57  C0.271,46.98,0,48.473,0,50c0,14.267,22.386,25.833,50,25.833S100,64.267,100,50c0-1.527-0.271-3.02-0.763-4.474  C96.515,47.938,93.261,50.146,89.487,52.096z"
        ></path>
    </g>
    <path
        d="m157.145 68.725-6.065 2.304-4.489-5.046c-2.474 1.14-5.338 1.771-8.443 1.771-10.432 0-18.148-7.036-18.148-18.027 0-11.015 7.714-18.003 18.148-18.003s18.148 6.988 18.148 18.003c0 5.216-1.723 9.535-4.659 12.641zm-29.892-18.998c0 7.473 4.733 11.694 10.895 11.694s10.894-4.22 10.894-11.694c0-7.085-4.733-11.307-10.894-11.307s-10.895 4.222-10.895 11.307zm51.705-7.4h6.988v24.942h-6.624l-.17-3.01c-1.747 2.208-4.513 3.495-7.934 3.495-5.993 0-9.292-3.13-9.292-8.637V42.324h7.01v15.287c0 3.3 2.063 4.512 4.49 4.512 2.887 0 5.507-1.456 5.532-6.04V42.326zm34.67 18.173c0 3.056.292 4.997.607 6.09v.679h-6.527l-.559-2.718c-1.867 2.257-5.093 3.203-8.005 3.203-3.93 0-7.764-1.748-7.764-6.939 0-5.168 3.857-6.915 9.074-8.056l4.1-.922c1.772-.412 2.403-1.018 2.403-2.037 0-2.45-2.233-3.13-4.199-3.13-2.522 0-4.439.994-4.876 3.808l-6.186-1.115c1.043-5.168 4.827-7.522 11.45-7.522 5 0 10.483 1.48 10.483 9.001V60.5zm-12.301 2.523c3.324 0 5.994-2.208 5.994-7.158l-5.92 1.674c-1.941.461-3.349 1.14-3.349 2.815 0 1.795 1.48 2.669 3.275 2.669zm35.327-20.696h7.4l-10.625 24.942h-6.066l-10.506-24.942h7.352l6.211 17.056zm34.525 12.107-.073 1.674h-18.488c.292 4.15 3.057 6.138 6.381 6.138 2.5 0 4.44-1.164 5.387-3.372l6.405.946c-1.65 5.047-6.138 7.934-11.743 7.934-8.055 0-13.32-4.755-13.32-12.956s5.41-13.007 13.101-13.007c7.06 0 12.325 3.907 12.35 12.643zm-12.3-7.69c-3.18 0-5.387 1.479-6.066 4.803h11.452c-.364-3.178-2.523-4.804-5.386-4.804zm24.31-.463c1.261-2.208 4.537-4.246 8.152-4.246v6.236c-5.288 0-7.813 1.553-7.813 6.841v12.157h-7.036V42.324h6.696v3.956zm16.62 21.473c-2.159 0-3.979-1.796-3.979-3.979s1.819-4.028 3.98-4.028c2.207 0 4.027 1.845 4.027 4.028s-1.82 3.98-4.028 3.98zm29.333-37.753h6.988V67.27h-6.624l-.17-3.251c-1.431 2.45-4.44 3.833-7.837 3.833-6.575 0-12.01-4.853-12.01-13.006s5.46-13.004 12.01-13.004c3.276 0 6.162 1.237 7.643 3.493V30.001zm-6.04 32.05c3.711 0 6.598-2.837 6.598-7.205s-2.912-7.23-6.599-7.23c-3.713 0-6.623 2.742-6.623 7.23 0 4.465 2.91 7.205 6.623 7.205zm34.912-20.21c6.552 0 11.987 4.852 11.987 13.005s-5.435 13.005-11.987 13.005c-3.444 0-6.453-1.382-7.86-3.833l-.17 3.25h-6.624V30.002h6.987V45.36c1.456-2.256 4.368-3.518 7.667-3.518zm-1.626 20.211c3.713 0 6.624-2.741 6.624-7.206 0-4.488-2.912-7.23-6.624-7.23-3.688 0-6.598 2.862-6.598 7.23s2.886 7.205 6.598 7.205z"
        fill="#eee"
    />
</svg>
